# xmcd CD database file
#
# Track frame offsets:
#	150
#	29995
#	41565
#	62348
#	75153
#	92805
#	109065
#	127497
#	144881
#	159187
#	181316
#	212780
#	223240
#	249040
#	262425
#	276581
#	293175
#	312139
#
# Disc length: 4329 seconds
#
# Revision: 1
# Processed by: cddbd v1.5.2PL0 Copyright (c) Steve Scherf et al.
# Submitted via: CDex 1.70beta2
#
DISCID=1210e712
DTITLE=Earl Hines - In New Orleans
DYEAR=1900
DGENRE=Jazz
TTITLE0=My Monday Date
TTITLE1=Song Of The Islands
TTITLE2=There'll Be Some Changes made
TTITLE3=Jelly Roll
TTITLE4=Tishomingo Blues
TTITLE5=The One I Love Belongs To Somebody Else
TTITLE6=Rosetta
TTITLE7=Way Down Yonder In New Orleans
TTITLE8=Someday Sweatheart
TTITLE9=Playing With The Fire
TTITLE10=Do You Know What It Means To Miss New Orleans
TTITLE11=Bouncing For Panassie
TTITLE12=Blues My Naughty Sweetie Gave To Me
TTITLE13=Sugar babe
TTITLE14=If I Could Be With You
TTITLE15=Someday You'll Be Sorry
TTITLE16=Moonglow
TTITLE17=Elephant Stomp
EXTD=
EXTT0=
EXTT1=
EXTT2=
EXTT3=
EXTT4=
EXTT5=
EXTT6=
EXTT7=
EXTT8=
EXTT9=
EXTT10=
EXTT11=
EXTT12=
EXTT13=
EXTT14=
EXTT15=
EXTT16=
EXTT17=
PLAYORDER=
